Love for All and Sharing is the first step to solving all the problems of humanity.

Websites I want to share.

    
http://www.shareintl.org/

    
http://www.lightmiddleway.com


Thank you very much

No credit for me...credit to EVERYONE for sharing
 
http://thepiratebay.org/user/raymondhome/

PLOT
During their nightly poker game a group of lowlifes are terrorized in their own convenience store by a masked killer.

Format:MP4

Video: ID : 1
Format : AVC
Format/Info : Advanced Video Codec
Format profile : High@L4.1
Format settings, CABAC : Yes
Format settings, ReFrames : 3 frames
Codec ID : avc1
Codec ID/Info : Advanced Video Coding
Duration : 1h 26mn
Bit rate mode : Variable
Bit rate : 3 067 Kbps
Maximum bit rate : 19.2 Mbps
Width : 1 280 pixels
Height : 720 pixels
Display aspect ratio : 16:9
Frame rate mode : Constant
Frame rate : 23.976 fps
Resolution : 24 bits
Colorimetry : 4:2:0
Scan type : Progressive
Bits/(Pixel*Frame) : 0.139
Stream size : 1.85 GB (84%)

Audio: ID : 2
Format : AAC
Format/Info : Advanced Audio Codec
Format version : Version 4
Format profile : LC
Format settings, SBR : No
Codec ID : 40
Duration : 1h 26mn
Bit rate mode : Variable
Bit rate : 128 Kbps
Maximum bit rate : 134 Kbps
Channel(s) : 2 channels
Channel positions : L R
Sampling rate : 48.0 KHz
Resolution : 16 bits
Stream size : 79.1 MiB (4%)

Audio: ID : 3
Format : AAC
Format/Info : Advanced Audio Codec
Format version : Version 4
Format profile : LC
Format settings, SBR : No
Codec ID : 40
Duration : 1h 26mn
Bit rate mode : Variable
Bit rate : 448 Kbps
Maximum bit rate : 460 Kbps
Channel(s) : 6 channels
Channel positions : Front: L C R, Rear: L R, LFE
Sampling rate : 48.0 KHz
Resolution : 16 bits
Stream size : 277 MiB (12%)

Duration: 1:26
Language:English

credit Wrath BIG BIG BIG TIME & to all the people who made it possible for me to share this with everyone...especially EVERYONE involve in the production of the movie...IF YOU LIKE IT...BUY IT :)

*****help what we can with others in need...the world is ONE big family*****